<svg xmlns="http://www.w3.org/2000/svg" width="600" height="600" viewBox="0 0 600 600"><g id="background-logo"><path id="Path" fill="#083019" stroke="none" d="M -340 -98 L 940 -98 L 940 926 L -340 926 Z"/></g><g id="logo-logo"><g id="Group"><g id="g1"><linearGradient id="linearGradient1" x1="15.687" x2="583.285" y1="299.985" y2="299.985" gradientUnits="userSpaceOnUse"><stop offset="0" stop-color="#d8f8e6" stop-opacity="1"/><stop offset="1" stop-color="#7ce9ab" stop-opacity="1"/></linearGradient><path id="path1" fill="url(#linearGradient1)" stroke="none" d="M 301.057556 95.918518 L 299.707153 93.956299 L 15.686615 506.013184 L 583.285217 506.001953 C 583.285217 506.001953 582.163086 503.745239 301.057556 95.918518 Z M 277.73877 152.622681 L 273.626526 163.965637 L 145.275208 334.048584 L 277.73877 152.622681 Z M 156.099396 313.540894 L 285.728394 130.586792 L 281.826538 141.346313 L 156.099396 313.540894 Z M 269.748718 174.6698 L 265.42926 186.580139 L 134.839844 353.434265 L 269.748718 174.6698 Z M 261.756409 196.711365 L 257.226563 209.205078 L 124.897888 371.573792 L 261.756409 196.711365 Z M 253.764038 218.764099 L 249.031616 231.813171 L 115.50885 388.402283 L 253.764038 218.764099 Z M 245.766235 240.822449 L 240.834351 254.422119 L 106.537445 404.107971 L 245.766235 240.822449 Z M 237.776611 262.864014 L 232.639404 277.030212 L 97.929962 418.725403 L 237.776611 262.864014 Z M 229.781128 284.916748 L 224.442139 299.644348 L 89.816284 432.140717 L 229.781128 284.916748 Z M 221.783325 306.983093 L 216.252991 322.233643 L 82.220123 444.334747 L 221.783325 306.983093 Z M 213.785522 329.035828 L 208.060791 344.830505 L 75.112366 455.361115 L 213.785522 329.035828 Z M 205.784973 351.111023 L 199.871704 367.416992 L 68.487122 465.26474 L 205.784973 351.111023 Z M 197.779053 373.185425 L 191.690369 389.992249 L 62.398071 474.011932 L 197.779053 373.185425 Z M 189.775757 395.271851 L 183.509399 412.556274 L 56.808289 481.682068 L 189.775757 395.271851 Z M 181.762024 417.379852 L 175.336243 435.1091 L 51.75235 488.29599 L 181.762024 417.379852 Z M 173.745178 439.487915 L 167.168549 457.628235 L 47.308441 493.908936 L 173.745178 439.487915 Z M 185.892944 415.745819 L 551.369446 499.366425 L 170.73877 457.550507 L 185.892944 415.745819 Z M 187.063293 412.511414 L 202.239258 370.651428 L 552.997864 496.242584 L 187.063293 412.511414 Z M 203.398743 367.450623 L 218.580139 325.579407 L 554.23822 493.0755 L 203.398743 367.450623 Z M 219.745056 322.366638 L 234.910156 280.531494 L 555.112305 489.718445 L 219.745056 322.366638 Z M 236.09375 277.263794 L 251.23468 235.503601 L 555.727417 486.072906 L 236.09375 277.263794 Z M 252.453308 232.141357 L 267.54834 190.492554 L 556.093689 482.015442 L 252.453308 232.141357 Z M 268.818665 186.991272 L 283.862427 145.497925 L 556.330872 477.457916 L 268.818665 186.991272 Z M 285.191833 141.829529 L 300.165588 100.520081 C 319.696411 128.852539 493.416199 380.888428 556.44989 472.322601 L 285.191833 141.829529 Z M 290.02417 118.737793 L 167.187195 292.108459 L 293.720764 108.539612 L 290.02417 118.737793 Z M 165.720551 461.630402 L 159.014038 480.125763 L 43.487823 498.621124 L 165.720551 461.630402 Z M 169.541168 460.862671 L 549.384888 502.58963 L 154.413818 502.58963 L 169.541168 460.862671 Z M 40.327423 502.58963 L 157.684631 483.793762 L 150.873535 502.58963 L 43.028992 502.58963 C 42.077148 502.58963 41.20929 502.58963 40.327423 502.58963 Z"/></g></g></g></svg>